<svg width="47" height="55" viewBox="0 0 47 55" fill="none" xmlns="http://www.w3.org/2000/svg">
<path d="M46.5673 18.1755C45.1454 5.23323 33.8014 -1.06667 21.6375 0.14764C15.7839 0.72885 10.5842 2.9499 7.09691 7.81753C4.60601 11.284 3.6304 15.9337 3.78609 20.1371C3.84836 21.86 5.11457 24.1018 4.8032 25.669C4.24275 28.5335 1.17064 30.8999 0.163904 33.6917C-0.583366 35.7675 1.37822 36.6082 2.94541 37.1271C3.38132 37.2724 3.81722 37.4177 4.24275 37.5838C4.15972 37.6357 4.14934 37.8536 4.03518 38.3207C3.84836 39.1095 4.23237 39.7322 4.78245 40.2096C4.43995 41.5381 5.18722 42.4929 6.6091 43.1779C6.54683 46.2397 7.23183 49.1146 10.7191 49.8099C14.4035 50.5572 19.0844 49.1457 20.527 53.8577C21.1186 55.7881 24.1492 54.9682 23.5576 53.0273C22.8207 50.6402 20.9629 48.3984 18.6173 47.4955C16.5416 46.6963 14.4554 46.9143 12.2759 46.8312C9.38023 46.7274 9.6397 44.496 9.79538 42.1297C9.84727 41.4239 9.27644 40.8116 8.64334 40.6144C8.4669 40.5625 8.28008 40.5002 8.10364 40.4379C8.10364 40.4379 8.09327 40.4379 8.09327 40.4276C8.59144 39.5557 8.3216 38.6009 7.36675 38.1442C7.75077 36.9818 8.03099 36.1826 6.58835 35.1655C5.80994 34.6155 4.66828 34.3767 3.77571 34.0861C3.58889 34.0239 3.46434 34.0342 3.35018 34.055C3.38131 33.9927 3.41245 33.9512 3.45397 33.8578C3.76533 33.2143 4.19086 32.602 4.57487 32.0104C5.73729 30.2149 8.01023 27.8589 7.95834 25.5756C7.9272 23.8216 7.06577 22.2336 6.92047 20.49C6.6091 16.8159 7.54319 13.038 9.4425 9.89328C12.6184 4.63126 18.9598 3.20937 24.6785 3.07445C29.9613 2.9499 35.2233 4.55861 38.9908 8.34685C43.7546 13.1418 43.9622 20.5004 43.3602 26.8003C42.9451 31.1697 41.0769 34.8957 39.7484 38.9849C38.1709 43.8422 39.2606 49.0523 40.5372 53.8369C41.0562 55.7881 44.0868 54.9578 43.5678 53.0066C41.9799 47.0596 41.6789 42.2957 43.983 36.6186C46.3908 30.7961 47.2626 24.465 46.5673 18.1755Z" fill="#003A70"/>
<path d="M41.2118 20.5107C41.3675 16.6914 38.503 13.9929 37.4755 13.1522C35.846 8.62707 30.7085 8.26381 29.1413 8.26381C29.0064 8.26381 28.8922 8.26381 28.7988 8.27419C26.8269 7.62033 24.9898 7.28821 23.3396 7.28821C19.4164 7.28821 17.4445 9.13562 16.7284 10.0178C14.5903 10.7547 13.1373 11.9275 12.39 13.5258C11.5805 15.2695 11.8815 17.0027 12.1306 17.8538C11.4767 19.7323 11.5494 21.2788 12.3485 22.4723C13.4072 24.0395 15.3999 24.4443 16.7595 24.5169C17.4964 27.5371 19.6448 28.2118 21.4195 28.2118C22.0838 28.2118 22.748 28.1184 23.3915 27.9938C23.7029 28.6892 24.2529 29.5714 25.2804 30.3394C25.6541 30.6196 26.0692 30.8687 26.5051 31.0763C28.0931 32.5916 31.4973 36.494 30.2 41.1748C28.8403 46.084 29.6188 50.36 30.3972 52.9651C30.8434 54.47 31.352 55.2899 32.504 54.9059C33.6561 54.5219 33.2824 53.567 32.9088 52.3216C32.2238 50.059 31.4869 46.2085 32.6909 41.8702C33.8014 37.8329 32.3484 34.3871 30.6774 31.9792C30.8538 31.9896 31.0095 32.0104 31.1859 32.0104C32.2238 32.0104 33.3447 31.917 34.5487 31.7198C35.9187 31.4914 36.6555 30.8064 37.0292 30.2771C37.4443 29.6855 37.6519 28.959 37.6623 28.1184C39.437 27.5164 40.6825 26.5512 41.3052 25.1915C42.177 23.2715 41.5543 21.2995 41.2118 20.5107ZM34.9327 28.7618C34.7977 28.959 34.5383 29.0836 34.1439 29.1562C30.8953 29.6855 28.3941 29.4053 26.8995 28.3259C26.4844 28.0249 26.2249 27.7032 26.0277 27.4126C26.1315 27.3918 26.2457 27.3711 26.3391 27.3503C27.0033 27.2569 27.7194 27.2154 28.4667 27.2154C31.2275 27.2154 33.8221 27.8174 35.0884 28.1702C35.078 28.409 35.0365 28.6165 34.9327 28.7618ZM38.97 24.0914C38.6067 24.8802 37.7246 25.4614 36.3546 25.835C35.2855 25.5133 32.0266 24.6311 28.4771 24.6311C27.6157 24.6311 26.7854 24.683 26.0069 24.7868C25.5191 24.849 24.9379 24.9943 24.3048 25.1397C23.3811 25.368 22.3225 25.6171 21.4299 25.6171C20.4439 25.6171 19.458 25.4095 19.1674 23.3026C20.008 20.5834 24.72 20.4381 27.5015 20.6041C28.6847 20.6768 29.4216 20.2928 29.5565 19.4313C29.7018 18.5699 28.9753 18.1029 27.7506 18.0302C24.5124 17.833 18.6692 18.0406 16.9255 21.9222C15.7424 21.8703 14.829 21.5486 14.4762 21.0297C14.0299 20.3654 14.3412 19.2134 14.6837 18.3623L14.8809 17.8642L14.6734 17.3763C14.6734 17.366 14.1025 15.9545 14.7149 14.6156C15.1819 13.6089 16.2509 12.8408 17.8908 12.3427L18.3786 12.1974L18.638 11.7614C18.6484 11.7407 19.8212 9.87252 23.3396 9.87252C24.7719 9.87252 26.4117 10.1839 28.1969 10.8066L28.4563 10.8896L28.7158 10.8689C28.7366 10.8689 28.8922 10.8585 29.1413 10.8585C30.6359 10.8585 34.2062 11.1906 35.1402 14.3042L35.2648 14.7298L35.628 14.9892C35.6592 15.01 38.9077 17.366 38.6171 20.6457L38.586 21.0193L38.7624 21.3514C38.7728 21.3618 39.5305 22.8771 38.97 24.0914Z" fill="#003A70"/>
</svg>
