<svg width="56" height="56" viewBox="0 0 56 56" fill="none" xmlns="http://www.w3.org/2000/svg">
<path d="M54.6971 25.3269C54.3947 23.6961 54.0741 22.0102 53.8359 20.3519C52.883 13.5811 48.1829 11.2173 46.6894 10.9424C45.3701 10.4385 44.1149 9.76052 42.9788 8.92677L42.8872 8.8718C42.5207 8.63359 42.1634 8.40454 41.8427 8.20297C41.183 7.79984 40.221 7.34173 39.0849 6.81033C37.4632 6.11402 35.8873 5.26194 34.4672 4.31825C33.5602 3.52114 33.1479 2.28426 33.3861 1.10235C33.4777 0.625926 33.1662 0.149498 32.6898 0.0395529C32.4516 -0.0154196 32.2133 0.0303908 32.0026 0.15866C31.801 0.286929 31.6545 0.488495 31.5995 0.735871C31.2238 2.57745 31.8835 4.49233 33.3494 5.75669C34.9162 6.8195 36.5928 7.72654 38.3153 8.46867C39.3414 8.9451 40.3035 9.4032 40.8624 9.75136C41.1922 9.96209 41.5587 10.1911 41.916 10.4202C43.217 11.3822 44.6555 12.1427 46.2497 12.7107C47.2575 12.9031 51.1972 14.7905 52.0126 20.6084C52.26 22.3401 52.5807 24.0625 52.8922 25.73C53.7442 30.2561 54.5505 34.5256 53.6709 38.1172C53.5518 38.6028 53.8542 39.0975 54.3398 39.2166C54.4131 39.235 54.4864 39.2441 54.5597 39.2441C54.9811 39.2441 55.3384 38.9601 55.4392 38.557C56.4379 34.5806 55.595 30.1187 54.6971 25.3269Z" fill="#003A70"/>
<path d="M26.4871 31.887C26.4321 31.6487 26.2947 31.4472 26.0931 31.3189C25.8916 31.1906 25.6442 31.1448 25.406 31.1998C15.1719 33.4079 12.0385 26.9119 11.7362 26.2065C10.8383 23.467 10.8016 22.6699 10.8658 22.4408C10.9299 22.2026 10.8932 21.9644 10.7741 21.7537C10.655 21.543 10.4535 21.3964 10.2244 21.3322C9.74799 21.204 9.25323 21.488 9.1158 21.9644C8.88675 22.789 9.13413 24.1358 9.9862 26.6921L10.0228 26.8295C10.371 27.874 10.7833 29.065 11.2781 30.421C11.2231 31.2823 10.8566 35.8175 9.46396 37.8148C9.32653 38.0164 9.27156 38.2546 9.31737 38.4928C9.36318 38.731 9.49145 38.9418 9.69301 39.0792C10.1053 39.3632 10.6734 39.2624 10.9574 38.8501C11.8003 37.6499 12.3134 35.8358 12.634 34.1592C13.2754 36.0374 13.761 37.9614 14.0817 39.8946C14.439 44.2924 13.7427 53.6377 13.706 54.0409C13.6877 54.2791 13.761 54.5173 13.9259 54.7006C14.0817 54.8838 14.3015 54.9937 14.6131 55.0212C15.0803 55.0212 15.4835 54.6547 15.5201 54.1783C15.5476 53.7843 16.2622 44.3749 15.8957 39.748C15.7217 37.5491 14.5672 34.2141 13.3762 30.87C15.6942 32.6382 18.5711 33.5545 21.5029 33.4537C22.9414 33.4445 24.389 33.2796 25.7908 32.9681C26.2764 32.8673 26.5879 32.3817 26.4871 31.887Z" fill="#003A70"/>
<path d="M13.9534 10.4294C14.329 10.182 14.6955 9.95293 15.0253 9.75136C15.5842 9.4032 16.5462 8.95426 17.5632 8.46867C19.304 7.72654 20.9807 6.81033 22.584 5.72004C24.0133 4.49232 24.6638 2.57745 24.2974 0.726707C24.2515 0.488493 24.1049 0.286927 23.9034 0.149496C23.7018 0.0212264 23.4544 -0.0337461 23.2162 0.0212264C22.978 0.0670369 22.7764 0.21363 22.639 0.415196C22.5107 0.616762 22.4649 0.864138 22.5107 1.09319C22.7398 2.2751 22.3275 3.51198 21.4754 4.27244C20.0095 5.26194 18.4428 6.10485 16.7936 6.81033C15.6758 7.33257 14.7138 7.79068 14.0633 8.19381C13.7243 8.40454 13.3487 8.65191 12.9272 8.91761C11.7819 9.75136 10.5359 10.4294 9.28986 10.9149C7.71398 11.2081 3.01383 13.572 2.06097 20.3427C1.82276 22.0194 1.50208 23.7327 1.19057 25.3819C0.30185 30.1095 -0.541062 34.5715 0.439281 38.5386C0.540064 38.9418 0.897385 39.2258 1.31884 39.2258C1.39214 39.2258 1.46543 39.2166 1.53873 39.1983C2.02432 39.0792 2.32667 38.5844 2.20756 38.0989C1.328 34.5165 2.13427 30.247 2.98634 25.7117C3.29785 24.0442 3.62769 22.3126 3.8659 20.5901C4.69049 14.7722 8.62102 12.8848 9.70215 12.6741C11.2231 12.1518 12.6523 11.3914 13.9534 10.4294Z" fill="#003A70"/>
<path d="M45.9016 26.7654C46.7719 24.1267 47.0193 22.7798 46.7994 21.9553C46.7353 21.717 46.5795 21.5246 46.3688 21.4055C46.1581 21.2864 45.9107 21.2589 45.6817 21.3231C45.2052 21.4605 44.9212 21.9553 45.0495 22.4317C45.1136 22.6607 45.0861 23.4578 44.1974 26.1515C44.0691 26.4538 40.8349 33.4262 30.5092 31.1906C30.271 31.1357 30.0328 31.1815 29.8221 31.3189C29.6205 31.4472 29.4739 31.6579 29.4281 31.887C29.3273 32.3726 29.6388 32.8581 30.1244 32.9681C31.5354 33.2796 32.9738 33.4445 34.4031 33.4537C37.3533 33.5636 40.2302 32.6291 42.5391 30.87C41.3388 34.2141 40.1936 37.5491 40.0195 39.748C39.653 44.2833 40.3127 53.1796 40.3951 54.1783C40.4318 54.6456 40.8258 55.0121 41.3663 55.0121C41.6045 54.9937 41.8244 54.8838 41.9893 54.7006C42.1451 54.5173 42.2276 54.2791 42.2092 54.0409C42.2001 53.9493 41.4763 44.3749 41.8336 39.9313C42.1543 37.9706 42.649 36.0374 43.2904 34.1592C43.611 35.8358 44.1241 37.6408 44.967 38.8501C45.1044 39.0517 45.3152 39.18 45.5534 39.2258C45.7916 39.2716 46.0298 39.2166 46.2314 39.0792C46.433 38.9418 46.5612 38.731 46.607 38.4928C46.6528 38.2546 46.5979 38.0164 46.4604 37.8148C45.0678 35.8175 44.7105 31.2823 44.6463 30.421C45.1319 29.0559 45.5534 27.874 45.8832 26.8753L45.9016 26.7654Z" fill="#003A70"/>
<path d="M28.4569 49.4415C28.1454 49.6339 27.7606 49.6339 27.4491 49.4415C27.0185 49.1758 26.4596 49.3133 26.203 49.7439C26.0748 49.9546 26.0381 50.1928 26.0931 50.431C26.1481 50.6692 26.2947 50.8708 26.5054 50.9899C26.9543 51.2648 27.4582 51.4022 27.953 51.4022C28.4569 51.4022 28.9608 51.2648 29.4098 50.9899C29.6205 50.8616 29.7579 50.6601 29.8129 50.4219C29.8679 50.1837 29.8312 49.9454 29.6938 49.7347C29.4373 49.3224 28.8784 49.1941 28.4569 49.4415Z" fill="#003A70"/>
<path d="M25.6167 17.5116L27.4399 17.3834L27.4124 16.9253C27.3666 16.2564 27.4216 15.7983 27.4308 15.7342L27.4674 15.3036L25.6808 15.0287L25.6167 15.4868C25.5984 15.5968 25.5251 16.1831 25.58 17.0535L25.6167 17.5116Z" fill="#003A70"/>
<path d="M26.1939 19.7838C26.5329 20.6726 27.0093 21.488 27.6048 22.221L27.898 22.5783L29.3181 21.4239L29.0249 21.0665C28.5485 20.4893 28.1729 19.8297 27.898 19.1333L27.7331 18.7027L26.0198 19.3624L26.1939 19.7838Z" fill="#003A70"/>
<path d="M29.6755 24.0992C30.3993 24.5848 31.2147 25.0154 32.1034 25.3544L32.534 25.5193L33.1937 23.8152L32.7631 23.6502C31.9935 23.3479 31.3063 22.9906 30.6925 22.5783L30.3168 22.3217L29.2906 23.8427L29.6755 24.0992Z" fill="#003A70"/>
<path d="M36.5654 26.4264L36.822 24.6123L36.373 24.5481C35.9241 24.484 35.4935 24.4107 35.0812 24.3191L34.6322 24.2275L34.2566 26.0232L34.7055 26.1148C35.1545 26.2065 35.6309 26.2889 36.1257 26.3622L36.5654 26.4264Z" fill="#003A70"/>
</svg>
